<svg xmlns="http://www.w3.org/2000/svg" width="48" height="48" fill="none"><path fill="#2B7FFF" d="M24.092 2.1c-1.575 0-3.046.717-4.3 1.891-1.254 1.175-2.327 2.81-3.222 4.792q-.28.623-.537 1.292a25 25 0 0 0-1.39-.18 21 21 0 0 0-1.582-.1c-1.54-.037-2.947.12-4.18.493-1.644.499-3 1.414-3.788 2.778s-.902 2.997-.511 4.67c.39 1.673 1.27 3.42 2.54 5.186q.399.555.85 1.113a25 25 0 0 0-.85 1.112c-1.269 1.765-2.149 3.513-2.54 5.186-.39 1.673-.275 3.306.512 4.67.788 1.363 2.145 2.279 3.789 2.777s3.597.61 5.76.394q.681-.068 1.389-.18.251.655.538 1.294c.895 1.982 1.968 3.617 3.222 4.792s2.725 1.892 4.3 1.892 3.046-.718 4.3-1.892c1.253-1.175 2.326-2.81 3.22-4.792q.289-.64.54-1.294.706.112 1.386.18c2.164.216 4.118.105 5.761-.394 1.645-.498 3.001-1.414 3.789-2.778.787-1.364.901-2.996.511-4.67-.39-1.672-1.27-3.42-2.54-5.185a25 25 0 0 0-.849-1.112q.441-.544.85-1.113c1.27-1.766 2.15-3.513 2.54-5.186s.276-3.306-.511-4.67c-.788-1.364-2.145-2.28-3.788-2.778-1.233-.373-2.64-.53-4.18-.493a21 21 0 0 0-1.582.1q-.68.068-1.389.18a25 25 0 0 0-.537-1.292c-.895-1.982-1.968-3.618-3.222-4.792-1.254-1.175-2.724-1.892-4.3-1.892m0 1.751c1.05 0 2.08.462 3.102 1.419 1.02.957 1.996 2.405 2.822 4.234q.201.448.383.904c-2.008.447-4.134 1.132-6.308 2.047-2.173-.915-4.3-1.6-6.307-2.046q.186-.466.383-.905c.826-1.83 1.802-3.278 2.823-4.235 1.021-.956 2.051-1.418 3.102-1.418m-11.587 7.693q.255-.003.515.004.7.015 1.448.09.48.048.978.12c-.618 1.963-1.088 4.146-1.383 6.486-1.879 1.425-3.536 2.925-4.926 4.44q-.306-.386-.593-.785c-1.172-1.63-1.938-3.199-2.256-4.562-.318-1.362-.203-2.485.323-3.395.525-.91 1.44-1.57 2.779-1.977.879-.267 1.931-.41 3.115-.42m23.172 0c1.184.011 2.236.155 3.115.421 1.34.406 2.254 1.067 2.78 1.977s.64 2.033.322 3.395-1.084 2.932-2.256 4.562q-.288.399-.593.786c-1.39-1.516-3.046-3.015-4.925-4.44-.294-2.34-.765-4.524-1.382-6.486q.496-.074.976-.121a19 19 0 0 1 1.963-.094m-4.68.529a34 34 0 0 1 1.14 4.753 47.6 47.6 0 0 0-5.826-3.363c1.624-.606 3.2-1.07 4.686-1.39m-13.81 0c1.485.32 3.06.785 4.684 1.39a48 48 0 0 0-5.824 3.362 34 34 0 0 1 1.14-4.752m6.904 2.293a45 45 0 0 1 4.315 2.193c1.444.833 2.8 1.721 4.058 2.642.169 1.55.26 3.168.26 4.835 0 1.665-.091 3.283-.26 4.832a45 45 0 0 1-4.057 2.641 45 45 0 0 1-4.316 2.193 45 45 0 0 1-4.316-2.193 45 45 0 0 1-4.056-2.64 45 45 0 0 1-.259-4.834c0-1.666.09-3.285.259-4.835a45 45 0 0 1 4.057-2.641 45 45 0 0 1 4.315-2.193m.119 2.636-5.016 3.096 5.016 3.095 5.015-3.095zm-10.384 3.67a48 48 0 0 0 0 6.726 34 34 0 0 1-3.546-3.364 34 34 0 0 1 3.546-3.363m20.532 0a34 34 0 0 1 3.545 3.363 34 34 0 0 1-3.545 3.362 48 48 0 0 0 0-6.725m-16.294.787v6.112l5.268 3.251V24.71zm12.287.003-5.267 3.25v6.11l5.267-3.25zM9.137 25.385c1.39 1.516 3.047 3.015 4.926 4.44.294 2.34.765 4.523 1.382 6.485q-.496.072-.976.12c-1.997.2-3.739.08-5.078-.327-1.34-.406-2.254-1.067-2.78-1.977-.524-.91-.64-2.032-.322-3.395s1.085-2.932 2.256-4.562q.287-.399.592-.784m29.908 0q.311.393.592.784c1.171 1.63 1.938 3.199 2.256 4.562.318 1.362.203 2.485-.323 3.395-.525.91-1.44 1.571-2.779 1.977s-3.08.527-5.078.327q-.488-.05-.975-.12c.618-1.963 1.088-4.147 1.382-6.487C36 28.4 37.655 26.9 39.045 25.385m-6.908 5.858a34 34 0 0 1-1.14 4.753 34 34 0 0 1-4.685-1.39 48 48 0 0 0 5.825-3.363m-16.09 0a48 48 0 0 0 5.823 3.363 34 34 0 0 1-4.684 1.39 34 34 0 0 1-1.14-4.752m8.096.08.064.04.064-.04zm-.052 4.291c2.174.915 4.3 1.6 6.309 2.046q-.182.457-.384.907c-.826 1.829-1.801 3.277-2.823 4.234-1.02.957-2.05 1.418-3.101 1.418-1.05 0-2.08-.461-3.102-1.418s-1.997-2.405-2.823-4.234q-.201-.45-.384-.907c2.008-.446 4.134-1.131 6.308-2.046"/></svg>