<svg xmlns="http://www.w3.org/2000/svg" width="48" height="48" fill="none"><path fill="#2B7FFF" d="M44.531 15.49a2.53 2.53 0 0 0-1.325-.638 2.43 2.43 0 0 0-1.431.225l-9.469 4.62a.33.33 0 0 1-.4-.044.4.4 0 0 1-.087-.121L26.287 8.6a2.77 2.77 0 0 0-.957-1.092A2.43 2.43 0 0 0 24 7.108a2.43 2.43 0 0 0-1.33.401c-.403.263-.733.64-.958 1.092l-5.53 10.93a.4.4 0 0 1-.089.122.35.35 0 0 1-.124.075q-.069.023-.14.015a.3.3 0 0 1-.135-.046l-9.47-4.62a2.4 2.4 0 0 0-1.429-.233 2.5 2.5 0 0 0-1.325.635 2.9 2.9 0 0 0-.818 1.31 3.16 3.16 0 0 0-.065 1.588L7.37 40.714c.08.377.23.733.44 1.045s.474.574.778.77c.401.27.862.412 1.332.412q.362-.004.712-.103a45.84 45.84 0 0 1 26.719-.02c.34.108.698.139 1.05.09.353-.047.693-.173 1-.37a2.7 2.7 0 0 0 .785-.773c.212-.314.364-.671.446-1.051l4.763-22.337a3.1 3.1 0 0 0-.052-1.581 2.87 2.87 0 0 0-.81-1.307M43.22 17.8l-4.782 22.336a.48.48 0 0 1-.168.268.43.43 0 0 1-.3.042 47.87 47.87 0 0 0-27.938 0 .34.34 0 0 1-.295-.043.4.4 0 0 1-.112-.114.4.4 0 0 1-.062-.153L4.782 17.8a.48.48 0 0 1 .078-.353.4.4 0 0 1 .132-.117.4.4 0 0 1 .164-.045l.15.041 9.488 4.64a2.39 2.39 0 0 0 1.898.105c.622-.23 1.143-.709 1.458-1.342L23.68 9.797a.4.4 0 0 1 .131-.158.33.33 0 0 1 .375 0 .4.4 0 0 1 .132.158l5.53 10.931c.316.633.837 1.112 1.459 1.342s1.3.192 1.898-.104l9.488-4.64a.34.34 0 0 1 .393.06.4.4 0 0 1 .12.187.45.45 0 0 1 .012.226M31.125 33.473a1.3 1.3 0 0 1-.371.791c-.207.205-.476.32-.754.323h-.113a53.5 53.5 0 0 0-11.775 0 1.06 1.06 0 0 1-.823-.265 1.27 1.27 0 0 1-.414-.828 1.35 1.35 0 0 1 .254-.907 1.12 1.12 0 0 1 .758-.454 52.7 52.7 0 0 1 12.225 0c.294.036.563.196.752.446.188.25.282.57.26.894"/></svg>