<svg xmlns="http://www.w3.org/2000/svg" width="72" height="36" fill="none"><path fill="#2B7FFF" d="M.66 0h5.786q2.046 0 3.146.308 1.122.286 1.584.946.462.638.462 1.804v1.76q0 .594-.484 1.122a2.4 2.4 0 0 1-1.1.726v.11q.836.088 1.518.726.705.615.704 1.386v2.2q0 1.738-1.386 2.464t-4.29.726H.66zm5.786 5.808q.814 0 1.21-.132t.528-.418q.154-.308.154-.88v-.704q0-.506-.132-.748-.132-.264-.55-.374-.396-.11-1.276-.11H4.092v3.366zm.088 6.028q1.254 0 1.782-.286t.528-.924V9.482q0-.792-.418-1.122-.396-.33-1.43-.33H4.092v3.806zm13.305 2.662q-5.655 0-5.654-3.454V7.216q0-2.002 1.276-2.904 1.298-.902 3.982-.902 2.53 0 3.696.88 1.188.858 1.188 2.926v2.596h-6.908v.968q0 .924.66 1.32t2.376.396q1.584 0 3.564-.462v2.046a20 20 0 0 1-4.18.418m1.43-6.512v-1.54q0-.528-.44-.792-.418-.264-1.43-.264-1.166 0-1.562.264a.91.91 0 0 0-.418.792v1.54zm8.527 6.512q-1.496 0-2.244-.264a1.8 1.8 0 0 1-1.034-.99q-.286-.726-.286-2.156 0-1.276.308-2.002.33-.726 1.034-1.034.726-.33 1.98-.33h3.608v-.726q0-.682-.198-1.012-.176-.33-.682-.462-.484-.132-1.474-.132-1.364 0-3.74.264V3.63q1.738-.22 4.07-.22 2.046 0 3.146.308 1.122.308 1.606 1.056t.484 2.178v7.326h-3.146v-.968q-.375.638-1.012.902-.638.285-2.42.286m1.254-2.002q.967 0 1.386-.066.308-.044.418-.132a.65.65 0 0 0 .22-.286q.088-.155.088-.462V9.482h-2.2q-.748 0-1.056.11a.6.6 0 0 0-.418.396q-.11.285-.11 1.034 0 .726.11 1.012.11.285.418.374.33.088 1.144.088m11.846 2.002q-2.046 0-2.882-.726-.814-.748-.814-2.332V3.63h3.212V11q0 .616.11.924.133.308.484.44.374.132 1.122.132.946 0 1.386-.11.44-.132.594-.44.154-.307.154-.946V3.63h3.212v10.648h-3.168V12.98q-.352 1.518-3.41 1.518m14.712 0q-.814 0-1.364-.066a5 5 0 0 1-1.1-.264 2.8 2.8 0 0 1-1.012-.55q-.375-.353-.616-.968-.264-.638-.264-1.474V5.61h-2.156V3.63h2.156V.55h3.212v3.08h2.926v1.98h-2.926v5.016q0 .77.132 1.166.132.375.506.55.374.154 1.144.154.308 0 1.144-.11v2.002q-1.034.11-1.782.11m6.649-.308L60.011 3.63h3.498l2.398 7.524 2.178-7.524h3.322l-5.83 15.224h-3.256zM0 33.188l7.436-9.746H.22V21h11.44v2.068l-7.436 9.746h7.568v2.464H0zm19.103 2.31q-.99 0-1.628-.066a8.6 8.6 0 0 1-1.364-.264q-.792-.22-1.276-.616-.484-.418-.814-1.166-.33-.725-.33-1.76V28.48q0-1.056.33-1.848t.858-1.232q.462-.375 1.21-.616a6.4 6.4 0 0 1 1.496-.33q.835-.045 1.518-.044 1.012 0 1.606.066.616.044 1.342.264.792.241 1.276.66.506.419.858 1.188.33.792.33 1.892v3.146q0 .99-.33 1.738-.308.747-.814 1.166-.44.374-1.21.616-.748.22-1.474.286-.66.066-1.584.066m0-2.002q.902 0 1.364-.132.462-.154.638-.462.198-.309.198-.902v-4.026q0-.88-.462-1.232t-1.738-.352-1.738.352-.462 1.232V32q0 .594.176.902.198.308.66.462.462.132 1.364.132m7.915-8.866h3.168v1.298q.374-1.518 3.41-1.518 2.046 0 2.86.748.837.726.836 2.31v7.81H34.08v-7.392q0-.616-.132-.924-.11-.308-.484-.44-.351-.132-1.1-.132-.945 0-1.386.132-.44.11-.594.418-.154.307-.154.946v7.392h-3.212zm18.43 10.868q-5.654 0-5.654-3.454v-3.828q0-2.003 1.276-2.904 1.299-.903 3.982-.902 2.53 0 3.696.88 1.188.858 1.188 2.926v2.596h-6.908v.968q0 .924.66 1.32t2.376.396q1.584 0 3.564-.462v2.046a20 20 0 0 1-4.18.418m1.43-6.512v-1.54q0-.528-.44-.792-.417-.264-1.43-.264-1.166 0-1.562.264a.91.91 0 0 0-.418.792v1.54z"/></svg>